<svg width="13" height="13" xmlns="http://www.w3.org/2000/svg" fill="none">

 <g>
  <title>Layer 1</title>
  <path id="svg_1" fill="#ffffff" d="m6.5,4.55c-0.51717,0 -1.01316,0.20545 -1.37886,0.57114c-0.36569,0.3657 -0.57114,0.86169 -0.57114,1.37886c0,0.51717 0.20545,1.01316 0.57114,1.37886c0.3657,0.36569 0.86169,0.57114 1.37886,0.57114c0.51717,0 1.01316,-0.20545 1.37886,-0.57114c0.36569,-0.3657 0.57114,-0.86169 0.57114,-1.37886c0,-0.51717 -0.20545,-1.01316 -0.57114,-1.37886c-0.3657,-0.36569 -0.86169,-0.57114 -1.37886,-0.57114zm0,-1.3c0.86195,0 1.6886,0.34241 2.2981,0.9519c0.60949,0.6095 0.9519,1.43615 0.9519,2.2981c0,0.86195 -0.34241,1.6886 -0.9519,2.2981c-0.6095,0.60949 -1.43615,0.9519 -2.2981,0.9519c-0.86195,0 -1.6886,-0.34241 -2.2981,-0.9519c-0.60949,-0.6095 -0.9519,-1.43615 -0.9519,-2.2981c0,-0.86195 0.34241,-1.6886 0.9519,-2.2981c0.6095,-0.60949 1.43615,-0.9519 2.2981,-0.9519zm4.225,-0.1625c0,0.21549 -0.0856,0.42215 -0.238,0.57452c-0.1523,0.15238 -0.359,0.23798 -0.5745,0.23798c-0.21549,0 -0.42215,-0.0856 -0.57453,-0.23798c-0.15237,-0.15237 -0.23797,-0.35903 -0.23797,-0.57452c0,-0.21549 0.0856,-0.42215 0.23797,-0.57452c0.15238,-0.15238 0.35904,-0.23798 0.57453,-0.23798c0.2155,0 0.4222,0.0856 0.5745,0.23798c0.1524,0.15237 0.238,0.35903 0.238,0.57452zm-4.225,-1.7875c-1.6081,0 -1.8707,0.00455 -2.61885,0.0377c-0.5096,0.02405 -0.8515,0.0923 -1.1687,0.2158c-0.2821,0.1092 -0.48555,0.23985 -0.702,0.45695c-0.20345,0.19656 -0.35987,0.43653 -0.4576,0.702c-0.1235,0.3185 -0.19175,0.65975 -0.21515,1.1687c-0.0338,0.7176 -0.0377,0.9685 -0.0377,2.61885c0,1.6081 0.00455,1.8707 0.0377,2.61885c0.02405,0.50895 0.0923,0.8515 0.21515,1.16805c0.1105,0.2827 0.2405,0.4862 0.4563,0.702c0.21905,0.2184 0.4225,0.349 0.702,0.4569c0.3211,0.1242 0.663,0.1931 1.17,0.2165c0.7176,0.0338 0.9685,0.0377 2.61885,0.0377c1.6081,0 1.8707,-0.0046 2.61885,-0.0377c0.5083,-0.0241 0.85085,-0.0923 1.16805,-0.2152c0.2814,-0.1098 0.4862,-0.2405 0.702,-0.4563c0.219,-0.219 0.3497,-0.4225 0.4576,-0.702c0.1235,-0.3204 0.1924,-0.66295 0.2158,-1.16995c0.0338,-0.7176 0.0377,-0.9685 0.0377,-2.61885c0,-1.6081 -0.0046,-1.8707 -0.0377,-2.61885c-0.0241,-0.5083 -0.0923,-0.8515 -0.2158,-1.1687c-0.098,-0.2652 -0.2541,-0.50508 -0.457,-0.702c-0.1964,-0.20355 -0.4364,-0.35999 -0.702,-0.4576c-0.31845,-0.1235 -0.66035,-0.19175 -1.16865,-0.21515c-0.7176,-0.0338 -0.9685,-0.0377 -2.61885,-0.0377zm0,-1.3c1.76605,0 1.9864,0.0065 2.6793,0.039c0.69225,0.0325 1.1635,0.14105 1.5782,0.30225c0.429,0.1651 0.7904,0.3887 1.1518,0.74945c0.3305,0.32493 0.5863,0.71798 0.7494,1.1518c0.1606,0.41405 0.2698,0.88595 0.3023,1.5782c0.0305,0.6929 0.039,0.91325 0.039,2.6793c0,1.76605 -0.0065,1.9864 -0.039,2.6793c-0.0325,0.69225 -0.1417,1.1635 -0.3023,1.5782c-0.1627,0.4341 -0.4185,0.8272 -0.7494,1.1518c-0.325,0.3304 -0.7181,0.5861 -1.1518,0.7494c-0.4141,0.1606 -0.88595,0.2698 -1.5782,0.3023c-0.6929,0.0305 -0.91325,0.039 -2.6793,0.039c-1.76605,0 -1.9864,-0.0065 -2.6793,-0.039c-0.69225,-0.0325 -1.1635,-0.1417 -1.5782,-0.3023c-0.43399,-0.1628 -0.82711,-0.4186 -1.1518,-0.7494c-0.33059,-0.3249 -0.58635,-0.7179 -0.74945,-1.1518c-0.1612,-0.4141 -0.26975,-0.88595 -0.30225,-1.5782c-0.03055,-0.6929 -0.039,-0.91325 -0.039,-2.6793c0,-1.76605 0.0065,-1.9864 0.039,-2.6793c0.0325,-0.6929 0.14105,-1.1635 0.30225,-1.5782c0.16265,-0.43408 0.41847,-0.82724 0.74945,-1.1518c0.32479,-0.3307 0.71788,-0.58648 1.1518,-0.74945c0.4147,-0.1612 0.8853,-0.26975 1.5782,-0.30225c0.6929,-0.03055 0.91325,-0.039 2.6793,-0.039z"/>
 </g>
</svg>