<svg width="16" height="13" xmlns="http://www.w3.org/2000/svg" fill="none">

 <g>
  <title>Layer 1</title>
  <path id="svg_1" fill="#ffffff" d="m15.9882,1.54324c-0.5989,0.26488 -1.2339,0.43885 -1.8841,0.51613c0.6853,-0.4099 1.1983,-1.05499 1.4432,-1.81507c-0.6432,0.38278 -1.3483,0.65104 -2.0833,0.79615c-0.4937,-0.52822 -1.1481,-0.87854 -1.8614,-0.9965c-0.7133,-0.11795 -1.4456,0.00307 -2.08307,0.34424c-0.63745,0.34118 -1.14433,0.88341 -1.44182,1.54238c-0.2975,0.65897 -0.36895,1.39776 -0.20325,2.10153c-1.30435,-0.06537 -2.58037,-0.40433 -3.74522,-0.99486c-1.16485,-0.59054 -2.19249,-1.41944 -3.0162,-2.43291c-0.29156,0.50079 -0.44478,1.07008 -0.44396,1.64957c0,1.13736 0.57888,2.14216 1.45896,2.73045c-0.52082,-0.0164 -1.03019,-0.15705 -1.48563,-0.41024l0,0.04079c0.00016,0.75748 0.26228,1.4916 0.74191,2.07789c0.47964,0.58628 1.14727,0.98865 1.88971,1.13888c-0.48348,0.13102 -0.99044,0.15034 -1.48249,0.05648c0.20933,0.65201 0.61732,1.22223 1.16685,1.63082c0.54953,0.4086 1.21308,0.63513 1.89775,0.64783c-0.68047,0.5344 -1.45961,0.9295 -2.29286,1.1626c-0.83325,0.2331 -1.70428,0.2997 -2.56328,0.1959c1.49951,0.9644 3.24508,1.4764 5.02792,1.4747c6.03428,0 9.33418,-4.9989 9.33418,-9.33421c0,-0.14119 -0.0039,-0.28395 -0.0102,-0.42357c0.6423,-0.46422 1.1967,-1.03929 1.637,-1.69819l-0.0007,-0.00079z"/>
 </g>
</svg>