<?xml version="1.0" standalone="no"?>
<!DOCTYPE svg PUBLIC "-//W3C//DTD SVG 20010904//EN"
 "http://www.w3.org/TR/2001/REC-SVG-20010904/DTD/svg10.dtd">
<svg version="1.0" xmlns="http://www.w3.org/2000/svg"
 width="1019.000000pt" height="1019.000000pt" viewBox="0 0 1019.000000 1019.000000"
 preserveAspectRatio="xMidYMid meet">
<metadata>
Created by potrace 1.14, written by Peter Selinger 2001-2017
</metadata>
<g transform="translate(0.000000,1019.000000) scale(0.100000,-0.100000)"
fill="#000000" stroke="none">
<path d="M0 8243 l0 -330 80 -37 c44 -21 82 -42 85 -46 3 -5 19 -11 35 -15 17
-4 30 -11 30 -16 0 -6 5 -7 10 -4 5 3 10 1 10 -4 0 -6 9 -11 20 -11 11 0 20
-4 20 -10 0 -5 9 -10 20 -10 11 0 20 -5 20 -11 0 -5 4 -8 9 -5 5 4 11 1 13 -4
2 -6 11 -12 20 -13 9 -2 23 -9 32 -16 9 -7 16 -10 16 -7 0 4 14 -2 30 -14 17
-12 30 -18 30 -15 0 4 7 -1 16 -9 8 -9 20 -14 25 -11 5 4 9 2 9 -3 0 -9 37
-25 52 -23 5 1 8 -3 8 -8 0 -5 14 -12 30 -16 17 -4 30 -11 30 -16 0 -5 9 -9
19 -9 11 0 21 -3 23 -7 5 -12 165 -93 182 -93 8 0 16 -4 18 -8 4 -10 140 -77
151 -74 4 1 7 -2 7 -7 0 -7 13 -14 50 -25 3 -1 10 -5 16 -9 35 -21 224 -115
224 -110 0 3 8 0 18 -8 21 -18 105 -59 121 -59 6 0 11 -4 11 -10 0 -5 7 -10
15 -10 8 0 15 -5 15 -10 0 -6 3 -9 8 -8 10 2 65 -24 73 -35 3 -5 8 -8 10 -6 2
1 23 -8 45 -19 23 -12 44 -18 48 -15 3 4 6 1 6 -6 0 -7 4 -9 10 -6 5 3 10 2
10 -3 0 -10 64 -42 85 -42 8 0 15 -3 15 -7 0 -10 58 -43 75 -43 7 0 15 -5 17
-12 2 -6 15 -13 28 -15 13 -2 27 -7 30 -12 3 -5 24 -17 48 -26 23 -10 42 -21
42 -25 0 -10 70 -43 77 -36 3 3 13 -3 22 -13 9 -10 24 -17 34 -15 9 1 17 -2
17 -6 0 -5 10 -12 23 -16 12 -4 24 -9 27 -13 7 -9 122 -64 140 -67 8 -2 16 -8
18 -14 2 -5 8 -8 13 -4 5 3 9 0 9 -5 0 -6 3 -10 8 -9 8 2 84 -34 92 -43 3 -4
16 -10 30 -14 14 -4 28 -12 31 -17 3 -5 13 -10 21 -12 15 -2 48 -30 48 -40 0
-4 -20 -26 -45 -49 -25 -24 -45 -42 -45 -39 0 2 -16 -12 -35 -32 -19 -20 -37
-36 -41 -35 -11 2 -93 -68 -87 -75 3 -3 1 -6 -6 -6 -7 0 -10 -4 -7 -8 5 -8
-59 -67 -72 -67 -10 -1 -66 -55 -57 -55 4 0 -9 -15 -29 -33 -20 -18 -36 -36
-36 -40 0 -3 -13 -21 -30 -39 -17 -18 -30 -38 -30 -44 0 -7 -12 -25 -27 -42
-33 -36 -50 -59 -63 -89 -5 -13 -14 -23 -20 -23 -5 0 -10 -4 -10 -9 0 -6 -10
-27 -22 -48 -24 -40 -26 -48 -31 -109 -2 -23 -14 -55 -26 -72 -12 -18 -24 -40
-25 -49 -2 -10 -9 -38 -16 -63 -7 -25 -14 -54 -16 -64 -2 -11 -9 -23 -16 -28
-9 -5 -9 -8 -1 -8 8 0 7 -9 -3 -30 -9 -16 -18 -30 -20 -30 -3 0 -22 9 -42 19
-20 11 -86 43 -147 71 -152 70 -199 94 -205 100 -3 3 -12 7 -20 9 -45 12 -80
27 -80 33 0 5 -4 8 -10 8 -5 0 -44 16 -86 35 -41 19 -80 35 -85 35 -5 0 -9 5
-9 10 0 6 -3 9 -7 8 -5 -1 -30 9 -58 21 -27 13 -52 23 -55 23 -3 0 -20 8 -37
20 -18 11 -33 16 -33 11 0 -4 -4 -3 -8 2 -9 13 -133 71 -144 67 -4 -1 -8 3 -8
9 0 5 -5 7 -10 4 -6 -3 -10 -1 -10 4 0 6 -5 11 -11 11 -6 0 -62 25 -124 55
-63 30 -117 55 -119 55 -3 0 -63 27 -133 61 -70 33 -155 72 -188 86 -33 14
-89 40 -125 58 -36 18 -75 36 -88 39 l-22 7 0 -319 0 -319 27 -12 c47 -22 374
-161 378 -161 2 0 32 -13 67 -29 35 -16 108 -48 163 -71 55 -23 113 -48 129
-56 16 -8 35 -14 43 -14 7 0 13 -5 13 -11 0 -5 4 -8 9 -4 5 3 15 0 23 -7 7 -7
22 -14 32 -16 11 -2 29 -10 41 -18 12 -8 25 -11 28 -7 4 3 7 1 7 -5 0 -7 3
-11 8 -10 13 4 82 -26 82 -35 0 -4 5 -5 10 -2 6 3 10 2 10 -3 0 -5 6 -9 13 -9
6 0 48 -17 92 -37 44 -21 88 -38 98 -39 9 -1 17 -4 17 -7 0 -6 54 -31 75 -34
8 -1 22 -10 33 -19 10 -9 28 -17 40 -17 12 0 22 -4 22 -10 0 -5 5 -10 10 -10
6 0 30 -9 52 -20 23 -11 49 -20 57 -20 20 0 71 -39 53 -40 -7 0 -11 -4 -8 -8
3 -5 -11 -23 -29 -41 -19 -18 -35 -37 -35 -42 0 -6 -9 -19 -20 -31 -11 -12
-32 -44 -46 -72 -14 -27 -37 -58 -50 -69 -15 -12 -24 -29 -24 -47 0 -16 -6
-35 -12 -42 -19 -20 -21 -34 -19 -153 3 -203 6 -250 16 -257 6 -5 10 -93 11
-230 0 -126 5 -232 11 -243 5 -11 10 -36 12 -55 1 -19 8 -62 16 -95 8 -33 17
-96 20 -140 6 -95 8 -106 18 -123 5 -6 5 -18 1 -25 -4 -6 -4 -9 1 -5 4 4 22
-3 39 -16 48 -35 65 -38 100 -17 30 19 35 21 56 21 10 0 29 38 26 50 -3 12 47
70 60 70 8 0 12 5 9 10 -3 6 -1 10 6 10 7 0 9 3 6 7 -4 3 -2 12 4 20 6 7 8 13
5 13 -4 0 9 20 29 44 21 27 31 46 24 48 -8 3 -6 9 5 21 10 9 15 21 12 25 -6
10 87 102 103 102 16 0 91 80 91 96 0 16 35 54 50 54 6 0 10 5 10 11 0 5 16
17 36 25 19 8 48 27 63 42 15 15 38 34 50 42 13 8 29 21 37 28 7 6 16 12 21
12 12 0 51 61 58 90 8 33 51 54 74 37 15 -11 18 -18 27 -61 2 -10 8 -24 15
-32 6 -8 8 -14 4 -14 -5 0 2 -8 13 -19 12 -10 22 -23 22 -28 0 -12 36 -32 69
-38 13 -2 47 -26 75 -53 28 -27 61 -54 73 -60 22 -12 73 -13 73 -1 0 3 7 6 15
6 8 0 15 -5 15 -10 0 -5 6 -7 14 -4 7 3 17 2 22 -3 19 -18 94 -9 94 11 0 12
30 -1 51 -22 20 -20 15 -29 -16 -29 -12 0 -32 -12 -44 -26 -25 -29 -23 -62 7
-92 30 -30 106 -87 132 -100 31 -14 239 -84 260 -87 8 -1 22 -4 30 -8 29 -13
121 -32 190 -40 14 -1 30 -5 35 -8 6 -4 18 -5 28 -3 10 1 21 -4 24 -12 3 -8
12 -14 20 -14 16 0 53 -36 53 -51 0 -4 13 -10 30 -14 16 -3 39 -14 52 -24 16
-12 36 -17 63 -14 62 5 65 6 65 14 0 5 11 4 24 -1 13 -5 26 -7 29 -4 15 15 90
20 110 7 7 -4 23 -9 37 -11 13 -2 30 -8 37 -14 7 -6 13 -7 13 -3 0 4 7 2 15
-5 8 -7 15 -9 15 -6 0 4 13 -2 29 -13 15 -11 31 -18 35 -14 3 3 6 2 6 -4 0 -6
21 -8 53 -6 92 7 241 3 231 -6 -2 -2 13 -10 33 -17 50 -18 109 -11 137 15 12
12 25 18 29 15 4 -4 9 1 13 10 5 13 11 10 38 -18 34 -37 90 -72 133 -82 54
-13 144 -9 153 6 8 12 14 10 35 -12 14 -16 29 -28 33 -28 4 0 23 -14 42 -30
19 -16 41 -35 48 -40 8 -7 12 -8 12 0 0 5 13 10 28 10 28 0 72 31 72 51 0 6 7
6 19 -1 24 -12 68 -13 76 -1 3 5 35 9 71 8 36 -1 68 3 72 9 4 6 22 16 40 23
17 8 32 17 32 22 0 14 22 10 34 -6 6 -8 36 -17 66 -21 30 -4 62 -8 70 -9 22
-3 109 21 126 35 8 7 14 9 14 4 0 -5 5 -2 10 6 5 8 13 16 17 16 30 6 52 18 47
28 -3 6 1 3 9 -6 11 -14 29 -18 90 -17 43 1 79 5 82 9 3 5 12 7 20 3 8 -3 15
-1 15 3 0 8 33 10 70 5 6 0 10 -12 10 -26 0 -13 8 -28 18 -33 33 -18 123 8
167 49 11 10 33 20 49 23 15 3 39 13 53 23 14 10 34 23 45 29 11 7 25 17 31
23 6 6 20 11 32 11 12 0 26 5 33 12 8 8 12 8 12 1 0 -7 12 -8 37 -3 20 5 39 8
42 8 14 -3 61 22 61 32 0 5 9 10 20 10 11 0 20 4 20 8 0 5 9 19 20 32 12 14
18 30 14 39 -21 48 -9 112 17 95 5 -3 9 -1 9 4 0 5 9 12 20 15 11 3 20 12 20
20 0 18 33 32 98 41 13 1 27 8 32 15 4 7 9 12 11 11 11 -4 39 14 39 24 0 14
41 36 65 36 8 0 15 -7 15 -15 0 -8 5 -15 11 -15 5 0 7 -4 4 -10 -3 -5 0 -8 7
-5 7 2 24 -11 38 -30 17 -23 36 -37 58 -41 23 -4 36 -14 43 -31 5 -13 13 -22
18 -18 5 3 18 -8 27 -25 10 -16 22 -30 26 -30 4 0 8 -5 8 -11 0 -13 21 -33 40
-37 8 -2 21 -11 28 -20 7 -9 18 -16 23 -14 5 1 9 -2 9 -6 0 -4 12 -9 27 -10
15 -1 31 -6 36 -11 5 -5 16 -7 23 -4 8 3 14 0 14 -6 0 -6 3 -11 8 -10 16 2 52
-14 52 -24 0 -6 3 -8 6 -5 3 3 17 -5 31 -18 14 -13 29 -21 34 -18 5 3 9 0 9
-6 0 -22 32 -43 69 -45 21 -1 44 -6 52 -11 20 -12 92 -14 106 -2 6 5 30 10 52
11 23 1 41 5 41 9 0 4 6 5 14 2 7 -3 20 2 29 10 8 8 17 13 20 10 3 -4 16 3 28
15 13 12 25 21 28 22 49 6 56 13 71 74 6 22 13 46 15 53 3 8 22 20 44 29 l38
15 -2 59 c-2 46 1 62 14 69 9 5 12 10 7 10 -5 0 -3 7 4 15 7 8 9 15 5 15 -4 0
-3 6 2 13 6 6 9 22 8 34 -1 13 1 23 5 23 3 0 6 10 7 22 1 12 9 26 18 30 8 5
15 15 15 22 0 7 9 22 21 34 11 13 23 33 25 45 20 82 26 167 12 167 -5 0 -8 7
-4 15 3 8 2 15 -3 15 -5 0 -11 8 -14 18 -4 9 -14 28 -24 42 -10 13 -12 21 -6
17 9 -6 11 -3 7 7 -3 9 -10 16 -15 16 -5 0 -9 7 -9 15 0 8 -5 15 -11 15 -5 0
-7 4 -4 10 3 5 0 22 -7 37 -8 15 -13 37 -13 48 1 11 -3 25 -7 31 -5 7 -8 16
-6 20 1 5 -4 20 -11 33 -7 12 -10 32 -8 43 3 11 0 21 -8 24 -7 3 -13 18 -13
32 1 15 -5 41 -12 57 -7 17 -14 57 -16 89 -3 33 -9 63 -15 67 -7 4 -9 19 -7
34 4 19 0 30 -13 38 -11 7 -19 20 -19 29 0 10 -5 18 -11 18 -5 0 -8 4 -5 9 3
5 -1 14 -9 21 -8 7 -15 20 -15 30 0 10 -7 23 -15 30 -8 7 -15 19 -15 26 0 8
-4 14 -8 14 -8 0 -39 48 -41 63 -1 4 -1 19 -1 33 0 14 -4 23 -9 20 -5 -3 -11
12 -15 34 -3 22 -11 40 -16 40 -6 0 -10 7 -10 15 0 8 -4 15 -9 15 -5 0 -11 13
-14 29 -3 16 -13 36 -22 44 -8 9 -15 20 -15 26 0 6 -4 11 -10 11 -5 0 -10 7
-10 16 0 9 -12 29 -27 43 -16 15 -28 29 -28 32 0 4 -15 19 -34 35 -57 49 -110
106 -156 167 -11 15 -23 27 -28 27 -14 0 -66 65 -67 83 0 9 -4 17 -8 17 -12 0
-34 49 -27 60 3 5 -6 17 -20 29 -15 11 -26 23 -27 28 0 4 -12 19 -26 33 -14
14 -22 18 -18 10 4 -9 2 -8 -7 3 -8 9 -17 17 -21 17 -4 0 -19 11 -34 25 -15
14 -32 25 -39 25 -7 0 -13 6 -13 13 0 6 -14 18 -30 25 -17 8 -36 19 -43 26
-22 21 -86 47 -122 48 -19 1 -40 7 -46 15 -6 7 -8 13 -4 13 18 0 -41 57 -93
88 -31 20 -58 40 -60 44 -2 4 -9 8 -15 8 -11 0 -23 9 -94 71 -13 10 -23 16
-23 13 0 -7 -60 27 -78 44 -13 12 -28 16 -45 13 -5 -1 -6 3 -2 9 7 12 -37 32
-79 36 -16 1 -40 14 -52 27 -13 14 -39 30 -59 37 -19 6 -35 16 -35 21 0 6 -5
7 -10 4 -6 -3 -10 -2 -10 4 0 6 -19 20 -41 32 -23 11 -47 25 -53 30 -29 24
-102 69 -113 69 -7 0 -13 5 -13 10 0 6 -7 10 -16 10 -8 0 -12 5 -9 10 3 6 -3
10 -13 10 -11 0 -25 7 -32 15 -7 9 -15 13 -18 11 -2 -3 -11 1 -19 9 -8 8 -27
15 -43 15 -17 0 -40 11 -60 30 -18 17 -49 37 -69 46 -53 23 -165 78 -171 84
-3 3 -13 6 -22 8 -9 1 -29 9 -44 17 -15 8 -31 12 -36 9 -4 -3 -8 -1 -8 4 0 9
-50 37 -62 34 -5 -1 -8 3 -8 10 0 6 -3 8 -7 5 -3 -4 -17 0 -30 8 -13 9 -28 13
-32 10 -5 -3 -15 1 -23 7 -7 7 -31 13 -53 12 -41 -1 -105 22 -105 37 0 5 -6 9
-14 9 -7 0 -31 8 -52 17 -22 9 -52 18 -67 19 -16 1 -31 5 -35 8 -3 3 -11 1
-19 -5 -10 -9 -13 -8 -13 0 0 7 -4 10 -9 7 -5 -4 -20 -2 -33 3 -14 5 -40 10
-59 12 -19 2 -38 5 -44 8 -12 6 -30 10 -65 13 -14 1 -27 5 -30 10 -3 4 -25 8
-48 9 -24 2 -46 7 -48 11 -7 11 -64 10 -64 -1 0 -14 -91 -6 -101 10 -5 8 -9
10 -9 6 0 -5 -7 -1 -16 7 -8 9 -19 14 -24 11 -5 -3 -11 1 -13 7 -4 10 -6 9 -6
-1 -1 -10 -4 -11 -15 -2 -10 8 -26 9 -54 3 -25 -6 -44 -6 -50 0 -6 6 -12 6
-16 -1 -7 -11 -37 -3 -48 13 -4 6 -9 4 -13 -6 -6 -14 -11 -15 -33 -5 -20 9
-26 9 -30 -1 -2 -7 -8 -9 -13 -6 -16 10 -59 12 -65 3 -2 -5 -15 -4 -28 1 -13
5 -26 7 -28 5 -2 -2 -26 -7 -53 -10 -28 -4 -61 -8 -75 -10 -14 -3 -50 -7 -80
-10 -30 -3 -57 -9 -60 -13 -8 -11 -44 -9 -52 3 -5 7 -8 7 -8 -1 0 -6 -17 -10
-37 -9 -21 0 -54 -7 -73 -16 -19 -10 -38 -15 -42 -12 -5 2 -14 1 -20 -4 -15
-9 -20 -10 -48 -12 -11 0 -20 -7 -20 -14 0 -7 -9 -14 -20 -15 -11 -1 -29 -3
-40 -4 -11 -1 -20 -5 -20 -8 0 -6 -10 -7 -123 -15 -37 -3 -78 -12 -91 -20 -21
-14 -60 -24 -103 -27 -7 -1 -13 -4 -13 -8 0 -4 -15 -7 -32 -7 -18 0 -44 -1
-58 -2 -14 -1 -49 0 -78 2 -35 2 -57 -2 -64 -10 -8 -10 -14 -10 -24 -2 -10 8
-14 8 -14 0 0 -6 -8 -11 -18 -11 -21 0 -79 27 -87 40 -3 5 -19 11 -35 15 -17
4 -30 11 -30 16 0 5 -5 9 -11 9 -6 0 -25 10 -42 22 -18 13 -34 23 -37 23 -14
2 -106 49 -111 57 -3 5 -8 9 -10 7 -2 -1 -24 10 -47 25 -24 15 -52 28 -63 29
-10 1 -19 4 -19 7 0 9 -60 42 -60 33 0 -4 -4 -3 -8 3 -11 16 -78 54 -96 54 -9
0 -16 4 -16 9 0 5 -18 17 -40 27 -22 10 -40 21 -40 26 0 4 -6 8 -12 8 -7 0
-38 14 -68 30 -30 16 -111 59 -180 95 -69 35 -148 78 -177 94 -28 16 -54 27
-57 24 -3 -4 -6 -1 -6 6 0 7 -4 9 -10 6 -5 -3 -10 -1 -10 5 0 6 -4 8 -10 5 -5
-3 -10 -2 -10 3 0 6 -11 13 -25 16 -14 4 -25 11 -25 16 0 6 -7 10 -16 10 -9 0
-28 8 -42 19 -15 10 -37 22 -49 25 -13 4 -23 12 -23 17 0 5 -3 9 -7 8 -16 -2
-53 14 -53 22 0 5 -9 9 -20 9 -11 0 -20 4 -20 9 0 5 -16 15 -35 22 -19 7 -35
17 -35 21 0 4 -4 8 -9 8 -5 0 -76 36 -157 81 -81 44 -157 85 -168 90 -12 5
-57 30 -101 55 -44 25 -88 47 -97 51 -10 3 -18 9 -18 14 0 5 -7 9 -15 9 -9 0
-32 10 -53 23 -20 12 -55 31 -77 42 -22 11 -42 23 -45 26 -3 3 -20 11 -37 18
-18 8 -33 16 -33 20 0 4 -16 13 -35 20 -19 7 -35 17 -35 22 0 5 -3 8 -7 8 -20
-3 -46 2 -40 7 4 4 -17 18 -45 31 -29 13 -55 29 -59 34 -3 6 -10 11 -15 11
-18 1 -46 27 -40 37 4 6 -5 9 -22 9 -36 -1 -55 9 -46 25 5 9 4 9 -6 0 -10 -9
-17 -7 -33 8 -11 10 -28 19 -36 19 -9 0 -42 16 -73 35 -32 19 -58 32 -58 29 0
-3 -12 3 -27 13 -16 11 -57 34 -93 52 -36 19 -73 41 -82 49 -17 14 -18 -2 -18
-315z"/>
</g>
</svg>
