<svg width="14" height="12.999999999999998" xmlns="http://www.w3.org/2000/svg" fill="none">

 <g>
  <title>Layer 1</title>
  <path id="svg_1" fill="#ffffff" d="m2.88873,1.44509c-0.00019,0.38307 -0.15255,0.75037 -0.42356,1.0211c-0.271,0.27074 -0.63846,0.42273 -1.02153,0.42254c-0.38307,-0.00019 -0.75037,-0.15255 -1.02111,-0.42356c-0.27073,-0.271 -0.42272,-0.63846 -0.42253,-1.02153c0.00019,-0.38307 0.15255,-0.75037 0.42356,-1.02111c0.271,-0.27073 0.63846,-0.42272 1.02153,-0.42253c0.38307,0.00019 0.75037,0.15255 1.0211,0.42356c0.27074,0.271 0.42273,0.63846 0.42254,1.02153zm0.04333,2.51319l-2.88873,0l0,9.04172l2.88873,0l0,-9.04172zm4.56419,0l-2.87428,0l0,9.04172l2.84539,0l0,-4.74474c0,-2.64318 3.44484,-2.88872 3.44484,0l0,4.74474l2.8526,0l0,-5.7269c0,-4.45587 -5.09861,-4.28977 -6.29744,-2.10155l0.02889,-1.21327z"/>
 </g>
</svg>