<svg width="23" height="11" xmlns="http://www.w3.org/2000/svg" fill="none">

 <g>
  <title>Layer 1</title>
  <path stroke="#ffffff" id="svg_1" fill="#ffffff" d="m17.5,10.0158c-0.1316,0.0008 -0.2621,-0.02447 -0.3839,-0.07423c-0.1218,-0.04976 -0.2327,-0.12309 -0.3261,-0.21577c-0.0937,-0.09297 -0.1681,-0.20357 -0.2189,-0.32542c-0.0508,-0.12186 -0.0769,-0.25257 -0.0769,-0.38458c0,-0.13201 0.0261,-0.26272 0.0769,-0.38458c0.0508,-0.12186 0.1252,-0.23246 0.2189,-0.32542l3.31,-3.29l-3.18,-3.31c-0.1863,-0.18736 -0.2908,-0.44082 -0.2908,-0.705c0,-0.26419 0.1045,-0.51764 0.2908,-0.705c0.093,-0.09373 0.2036,-0.16813 0.3254,-0.21889c0.1219,-0.05077 0.2526,-0.07691 0.3846,-0.07691c0.132,0 0.2627,0.02614 0.3846,0.07691c0.1218,0.05076 0.2324,0.12516 0.3254,0.21889l3.86,4c0.1832,0.18693 0.2859,0.43825 0.2859,0.7c0,0.26175 -0.1027,0.51307 -0.2859,0.7l-4,4c-0.0898,0.09693 -0.1978,0.17512 -0.318,0.23004c-0.1201,0.05493 -0.25,0.08546 -0.382,0.08996z"/>
  <line id="svg_2" stroke-linecap="round" stroke-width="2" stroke="#ffffff" y2="5.01562" x2="1" y1="5.01562" x1="20"/>
 </g>
</svg>